<?xml version="1.0" encoding="utf-8"?>
<!-- Generator: Adobe Illustrator 15.0.0, SVG Export Plug-In . SVG Version: 6.00 Build 0)  -->
<!DOCTYPE svg PUBLIC "-//W3C//DTD SVG 1.1//EN" "http://www.w3.org/Graphics/SVG/1.1/DTD/svg11.dtd">
<svg version="1.1" id="Layer_1" xmlns="http://www.w3.org/2000/svg" xmlns:xlink="http://www.w3.org/1999/xlink" x="0px" y="0px"
	 width="463px" height="168px" viewBox="0 0 463 168" enable-background="new 0 0 463 168" xml:space="preserve">
<path d="M391.766,95.795c0.5,2.076,11.846,6.348,21.07,6.348c28.301,0,35.652-14.543,35.652-24.242
	c0-31.86-50.613-19.163-50.613-40.864c0-10.621,10.473-15.007,20.32-15.007c10.973,0,20.07,5.08,23.813,15.007
	c0.375,1.039,1.248,3.463,2.619,3.463c1.246,0,1.494-0.809,1.371-1.73l-1.869-15.7c-0.125-1.271-0.75-1.616-1.496-1.616
	c-1.248,0-1.496,1.271-2.619,1.271c-1.746,0-5.857-4.156-20.943-4.156c-14.338,0-27.678,7.042-27.678,21.702
	c0,30.129,50.615,17.662,50.615,39.941c0,12.12-11.596,18.237-23.438,18.237c-17.203,0-24.684-12.006-26.18-17.314
	c-0.625-2.425-0.625-3.812-2.369-3.812c-1.248,0-1.869,1.271-1.371,3.579L391.766,95.795z M334.16,31.728
	c0-7.734-0.271-7.273,12.805-7.273c5.447,0,19.613-0.691,23.154,3.232c2.184,2.654,0,8.195,3.271,8.195
	c0.816,0,2.725-0.922,2.725-13.736c0-1.386-0.27-2.54-1.359-2.54c-4.227,0-16.754,0.462-19.479,0.462
	c-5.723,0-12.805-0.462-38.549-0.462c-3.951,0-4.77,0.462-4.77,1.386c0,1.385,2.996,1.616,4.088,1.848
	c7.354,0.924,7.354,6.463,7.354,11.658v52.639c0,5.426-0.271,8.658-3.813,10.043c-4.357,1.848-5.723,1.617-5.992,3
	c0,0.926,0.814,1.156,2.043,1.156c5.449,0,11.168-0.348,16.617-0.465c10.354-0.229,20.703,0.465,31.059,0.465
	c5.992,0,6.99,0.229,11.348-3.928c3.271-3,6.813-7.041,6.813-11.195c0-0.23-0.137-1.387-1.09-1.387
	c-1.771,0-0.678,11.965-35.869,11.893c-11.441-0.025-10.354-2.771-10.354-9.582v-21.24c0-1.731-0.406-3.692,2.451-3.692h20.16
	c11.441,0,6.813,10.157,11.033,10.157c0.953,0,1.498-0.462,1.498-1.501c0-3.115-0.271-6.117-0.271-9.119
	c0-3.693,0.271-7.619,0.271-11.658c0-0.924-0.41-2.193-1.498-2.193c-3.271,0,0.408,9.234-13.758,9.234h-14.711
	c-5.449,0-5.178,0-5.178-3.924V31.728L334.16,31.728z M292.527,33.458c-0.5-13.736,9.477-8.772,9.477-12.467
	c0-0.693-0.5-1.386-1.248-1.386c-1.994,0-3.115,0.462-5.984,0.462c-0.623,0-4.611-0.462-5.857-0.462
	c-1.496-0.114-2.492,2.655-3.24,3.925l-29.672,55.178c-1.994,3.812-3.242,6.233-3.863,6.233c-0.875,0-1.373-1.039-2.744-3.462
	L219.72,22.837c-0.623-1.27-0.872-3.231-2.618-3.231c-2.244,0-4.488,0.462-6.732,0.462c-2.367,0-4.611-0.462-6.855-0.462
	c-1.122,0-2.119,0.231-2.119,1.271c0,3.926,11.844-2.539,11.844,24.588c0,12.236-1.496,24.473-2.992,43.29
	c-0.873,12.006-8.852,7.271-8.852,11.197c0,0.809,0.374,1.387,1.246,1.387c2.244,0,4.363-0.465,10.847-0.465
	c3.74,0,9.351,0.465,10.972,0.465c1.746,0,3.115-0.117,3.115-1.271c0-4.154-11.843,0.924-11.22-14.428l1.496-40.518
	c0.125-1.154,0.499-1.731,0.872-1.731c0.499,0,1.123,0.346,1.497,1.271l26.553,51.483c0.375,0.809,1.248,3.348,2.494,3.348
	s3.242-4.73,3.865-5.77l25.807-48.715c1.246-2.424,2.369-3.463,3.242-3.463c0.746,0,1.371,1.617,1.371,4.502l1.244,44.788
	c0.127,8.545-7.729,6.006-7.729,9.469c0,0.463,0.248,1.039,1.371,1.039c3.115,0,7.105-0.463,10.971-0.463
	c4.986,0,9.352,0.463,11.721,0.463c1.371,0,2.988,0,2.988-1.154c0-4.041-9.223,0.229-9.848-9.467L292.527,33.458z M150.652,102.145
	c27.802,0,47.125-16.738,47.125-42.711c0-23.895-19.571-40.864-45.005-40.864c-25.558,0-45.754,17.431-45.754,41.44
	C107.018,84.366,123.599,102.145,150.652,102.145z M149.031,22.376c24.311,0,39.645,20.433,39.645,41.441
	c0,21.356-14.586,34.862-32.788,34.862c-24.685,0-39.77-20.663-39.77-42.018C116.119,38.421,128.087,22.376,149.031,22.376z
	 M25.358,88.637c0,11.426-9.724,7.619-9.724,10.965c0,1.156,0.374,1.732,1.371,1.732c0.499,0,1.87-0.463,10.722-0.463
	c6.607,0,15.708,0.463,17.329,0.463c1.123,0,1.995-0.348,1.995-0.924c0-3.58-11.844-1.039-11.844-8.889V62.777
	c0-1.27,0-1.962,1.497-1.962h46.003c1.495,0,0.997,1.039,0.997,2.886v27.704c0,7.273-8.727,5.658-8.727,8.428
	c0,1.848,1.87,1.502,2.992,1.502c2.369,0,5.859-0.463,13.838-0.463c4.488,0,8.353,0.463,11.719,0.463
	c0.872,0,1.371-1.039,1.371-1.385c0-2.887-11.345-0.809-11.345-9.236V29.532c0-7.965,8.353-6.002,8.353-8.081
	c0-0.693-0.25-1.847-3.491-1.847c-2.493,0-4.363,0.462-8.976,0.462c-2.369,0-8.852-0.462-12.966-0.462
	c-1.87,0-2.119,0.578-2.119,1.271c0,2.655,9.35,0.692,9.35,8.658v23.664c0,0.461,0.249,3.348-0.997,3.348H37.077
	c-1.871,0-1.871-0.461-1.871-2.078V29.533c0-8.658,8.977-6.465,8.977-8.773c0-0.461-0.249-1.154-2.369-1.154
	c-3.865,0-7.729,0.462-11.594,0.462c-4.612,0-9.101-0.462-13.714-0.462c-0.997,0-1.995,0.23-1.995,1.271
	c0,2.539,10.722,0.229,10.846,8.656L25.358,88.637L25.358,88.637z"/>
<path d="M392.775,146.131c0.264,1.082,6.273,3.303,11.158,3.303c14.99,0,18.885-7.564,18.885-12.607
	c0-16.566-26.807-9.963-26.807-21.25c0-5.521,5.545-7.803,10.764-7.803c5.811,0,10.629,2.641,12.609,7.803
	c0.199,0.539,0.662,1.803,1.389,1.803c0.66,0,0.789-0.422,0.727-0.9l-0.99-8.164c-0.064-0.66-0.396-0.842-0.791-0.842
	c-0.662,0-0.793,0.662-1.387,0.662c-0.928,0-3.104-2.162-11.096-2.162c-7.594,0-14.658,3.662-14.658,11.287
	c0,15.668,26.809,9.184,26.809,20.77c0,6.305-6.139,9.484-12.414,9.484c-9.111,0-13.072-6.244-13.867-9.004
	c-0.328-1.262-0.328-1.982-1.254-1.982c-0.658,0-0.99,0.662-0.725,1.861L392.775,146.131z M345.693,140.486
	c0,8.404-5.811,5.768-5.811,7.865c0,0.299,0.064,0.658,0.857,0.658c0.461,0,3.896-0.238,6.207-0.238
	c3.234,0,5.082,0.238,6.668,0.238c0.662,0,0.729-0.479,0.729-0.779c0-1.619-5.813,0.48-5.813-4.922v-24.553
	c0-1.199,0.199-1.379,0.461-1.379c0.465,0,1.258,1.02,1.391,1.139l28.393,29.055c1.389,1.381,2.047,1.684,2.51,1.684
	c0.529,0,0.594-0.842,0.594-2.582v-34.758c0-4.383,3.896-3.303,3.896-4.859c0-0.361-0.264-0.541-0.658-0.541
	c-1.586,0-4.426,0.24-6.67,0.24c-2.109,0-4.025-0.24-6.008-0.24c-0.396,0-0.727,0.18-0.727,0.6c0,1.98,7.33-0.301,7.33,7.564v25.092
	c0,0.479-0.068,0.66-0.199,0.66s-0.396-0.24-0.791-0.66l-31.5-31.875c-0.396-0.422-0.988-1.381-1.717-1.381
	c-0.988,0-2.049,0.24-3.037,0.24c-1.057,0-2.047-0.24-3.105-0.24c-0.33,0-0.988,0.24-0.988,0.6c0,2.223,7.988-1.262,7.988,11.227
	V140.486L345.693,140.486z M310.615,112.814c0-4.02-0.129-3.783,6.209-3.783c2.645,0,9.512-0.357,11.227,1.684
	c1.057,1.383,0,4.262,1.586,4.262c0.396,0,1.318-0.48,1.318-7.146c0-0.721-0.133-1.316-0.656-1.316
	c-2.049,0-8.125,0.238-9.443,0.238c-2.771,0-6.207-0.238-18.688-0.238c-1.916,0-2.313,0.238-2.313,0.721
	c0,0.721,1.453,0.84,1.98,0.959c3.564,0.48,3.564,3.363,3.564,6.064v27.373c0,2.818-0.131,4.502-1.848,5.223
	c-2.111,0.961-2.773,0.84-2.906,1.561c0,0.48,0.398,0.6,0.99,0.6c2.643,0,5.414-0.178,8.057-0.238
	c5.021-0.121,10.037,0.238,15.057,0.238c2.904,0,3.473,0.121,5.588-2.039c1.582-1.563,3.299-3.662,3.299-5.822
	c0-0.121-0.064-0.721-0.525-0.721c-0.855,0-2.219,6.184-17.473,6.184c-5.547,0-5.021-1.439-5.021-4.98v-11.047
	c0-0.898-0.193-1.92,1.191-1.92h9.773c5.547,0,3.301,5.279,5.348,5.279c0.463,0,0.727-0.238,0.727-0.777
	c0-1.619-0.131-3.186-0.131-4.742c0-1.92,0.131-3.961,0.131-6.064c0-0.479-0.197-1.141-0.727-1.141c-1.586,0,0.199,4.803-6.67,4.803
	h-7.131c-2.643,0-2.514,0-2.514-2.041V112.814L310.615,112.814z M256.248,142.828c0,5.703-4.688,4.203-4.688,5.584
	c0,0.359,0.133,0.602,0.66,0.602c0.463,0,6.803-0.238,7.396-0.238c3.367,0,6.734,0.238,10.104,0.238
	c18.291,0,25.488-9.543,25.488-23.354c0-11.104-11.49-19.146-23.18-19.146c-5.68,0-9.971,0.24-14.33,0.24
	c-1.979,0-3.895-0.24-5.939-0.24c-0.398,0-0.924,0.18-0.924,0.6c0,1.621,5.412-0.301,5.412,5.824V142.828z M261.463,111.795
	c0-2.822,0.266-3.781,6.539-3.781c12.545,0.059,22.314,7.623,22.314,20.949c0,13.865-8.914,18.428-18.289,18.428
	c-2.973,0-7.99-0.719-10.168-2.701c-0.596-0.539-0.396-3.42-0.396-4.381V111.795z M215.043,110.715c0-2.344,1.387-2.225,3.765-2.225
	c6.471,0,12.61,2.461,12.61,9.785c0,7.443-6.336,8.525-9.176,8.525c-3.104,0-7.199,0.299-7.199-0.842V110.715z M228.053,127.281
	c4.619-1.68,8.318-5.703,8.318-10.387c0-11.586-14.593-10.385-15.648-10.385c-3.436,0-7.198,0.24-11.027,0.24
	c-3.369,0-3.037-0.24-4.226-0.24c-0.794,0-1.322,0.359-1.322,0.721c0,2.041,5.681-0.42,5.681,5.344v30.557
	c0,4.563-4.82,3.723-4.82,5.225c0,0.359,0.263,0.658,0.66,0.658c2.51,0,5.019-0.238,7.527-0.238c5.479,0,6.999,0.238,7.594,0.238
	c0.527,0,1.123,0.121,1.123-0.48c0-2.041-6.867-0.178-6.867-5.342v-12.666c0-0.6-0.396-1.682,1.715-1.682
	c7.396,0,6.406-0.182,8.783,3.184l7.33,10.504c2.51,3.422,5.084,6.482,9.904,6.482c0.594,0,4.291,0,4.291-0.723
	c0-1.438-3.234,0.779-7.988-5.818L228.053,127.281z M186.452,139.588c0.661,1.621,2.047,4.383,2.047,5.701
	c0,2.281-3.963,1.684-3.963,3.121c0,0.602,1.058,0.602,1.455,0.602c1.781,0,3.564-0.238,5.348-0.238
	c2.707,0,5.414,0.238,8.121,0.238c0.463,0,0.925,0,0.925-0.539c0-1.5-3.83-0.184-5.812-2.939c-1.519-2.102-2.312-4.625-3.302-6.846
	l-13.735-30.914c-0.197-0.479-0.66-2.223-1.386-2.223c-0.858,0-1.057,0.961-4.953,8.521l-15.781,30.615
	c-1.717,3.424-4.821,2.4-4.821,3.664c0,0.359,0.198,0.658,0.594,0.658c1.717,0,3.5-0.238,5.283-0.238
	c1.849,0,3.697,0.238,5.546,0.238c0.859,0,1.783,0.18,1.783-0.898c0-1.563-4.688,0.24-4.688-3.963c0-0.781,0.264-1.68,0.462-2.102
	l4.226-8.404c0.66-1.26,1.849-1.26,3.104-1.26h14.527c1.848,0,2.245,0.898,2.904,2.279L186.452,139.588z M173.973,114.072
	c0.395-0.719,0.727-0.719,1.056,0l6.472,14.473c0.33,0.775,0.396,1.195-1.056,1.195H167.37c-0.857,0-1.32-0.236-0.857-1.078
	L173.973,114.072z M136.064,126.271c-0.605,0-1.546-0.121-1.546,0.674c0,1.527,5.848,0.244,5.848,3.115v9.471
	c0,5.195-7.864,7.945-13.98,7.945c-12.973,0-19.828-10.328-19.828-21.143c0-10.082,6.049-19.371,18.147-19.371
	c15.863,0,18.889,11.795,20.636,11.795c0.672,0,0.739-0.611,0.739-1.102l-0.672-8.004c-0.067-0.49,0.202-1.406-0.739-1.406
	c-0.74,0-1.008,1.1-1.748,1.1c-1.882,0-5.243-4.154-16.871-4.154c-14.249,0-25.138,9.105-25.138,22.303
	c0,13.564,9.208,21.939,24.062,21.939c11.965,0,13.779-4.154,20.703-6.17v-12.467c0-4.098,3.429-2.689,3.429-3.975
	c0-0.795-1.278-0.551-1.816-0.551H136.064L136.064,126.271z M66.608,109.271c0-0.541,0.126-1.682-0.756-1.682
	c-0.567,0-0.819,0.541-1.134,0.541c-0.315,0-2.711-1.621-6.745-1.621c-5.105,0-10.21,2.701-10.21,8.164
	c0,2.521,1.26,4.922,2.899,6.844c-6.744,1.381-10.085,6.303-10.085,12.725c0,9.365,8.131,15.189,17.396,15.189
	c6.177,0,10.967-2.043,15.506-6.064c3.467,2.645,6.934,6.064,11.661,6.064c2.08,0,5.231-0.9,5.231-1.922
	c0-0.121-0.063-0.479-0.504-0.479s-1.072,0.299-2.332,0.299c-2.836,0-8.761-5.822-11.156-7.625
	c2.016-3.422,2.521-7.262,2.961-11.045c0.315-2.641,2.711-1.98,2.711-2.939c0-0.602-0.315-0.723-0.883-0.723
	c-2.143,0-3.214,0.24-4.034,0.24c-0.946,0-3.151-0.24-5.483-0.24c-0.505,0-1.451-0.119-1.451,0.541c0,1.922,5.925-0.48,5.925,6.543
	c0,2.521-0.252,4.684-1.828,6.363c-13.614-12.006-22.943-21.49-22.943-25.512c0-2.883,2.332-4.863,5.231-4.863
	c3.845,0,7.122,3.182,8.636,6.303c0.188,0.361,0.377,1.08,0.945,1.08c0.252,0,0.63-0.18,0.63-0.48L66.608,109.271z M60.115,145.893
	c-8.13,0-16.136-6.725-16.136-14.709c0-3.48,2.899-8.164,6.871-8.164c2.269,0,7.06,8.045,20.548,19.031
	C68.31,144.568,64.15,145.893,60.115,145.893z"/>
<path d="M425.592,112.596c-0.721,0-1.336-0.266-1.854-0.787c-0.52-0.523-0.775-1.148-0.775-1.875c0-0.732,0.26-1.359,0.779-1.881
	c0.521-0.521,1.146-0.777,1.879-0.777c0.734,0,1.359,0.26,1.881,0.777c0.521,0.52,0.777,1.145,0.777,1.875
	c0,0.746-0.258,1.375-0.779,1.893C426.979,112.336,426.342,112.596,425.592,112.596z M425.592,112.217
	c0.746,0,1.336-0.271,1.775-0.818c0.355-0.445,0.535-0.934,0.535-1.467c0-0.527-0.18-1.014-0.535-1.461
	c-0.439-0.545-1.02-0.818-1.746-0.818c-0.725,0-1.305,0.273-1.742,0.818c-0.359,0.447-0.537,0.936-0.537,1.463
	c0,0.623,0.221,1.16,0.664,1.605C424.451,111.99,424.98,112.217,425.592,112.217z M424.74,111.391v-2.887h0.908
	c0.289,0,0.508,0.061,0.652,0.178c0.145,0.119,0.217,0.297,0.217,0.535c0,0.174-0.043,0.332-0.127,0.473
	c-0.082,0.141-0.207,0.262-0.373,0.365l0.867,1.336h-0.539l-0.775-1.193h-0.367v1.193H424.74z M425.166,109.83h0.137
	c0.254,0,0.443-0.049,0.574-0.145c0.127-0.096,0.189-0.24,0.189-0.432c0-0.152-0.055-0.268-0.162-0.346
	c-0.105-0.076-0.268-0.113-0.479-0.113h-0.26V109.83z"/>
</svg>
